<svg width="328" height="107" viewBox="0 0 328 107" fill="none" xmlns="http://www.w3.org/2000/svg">
<g clip-path="url(#clip0_1_5351)">
<path d="M306.174 39.5859C306.245 39.6855 306.331 39.778 306.43 39.8421C306.672 39.9987 306.985 40.0129 307.276 39.9844C308.507 39.8563 309.737 39.8279 310.975 39.778C312.333 39.7211 313.727 39.7709 315.078 39.6499C318.243 39.5218 322.588 39.5005 325.724 39.0521C326.435 38.9524 326.926 38.6749 327.246 38.0272C328.149 36.191 328.242 33.3868 327.452 32.4687C326.784 31.6858 325.959 31.7427 324.764 31.8495C323.505 31.9562 321.976 32.1128 320.725 32.2124C317.396 32.4758 314.068 32.7818 310.747 33.1235C309.346 33.2658 307.02 33.0167 306.309 34.554C305.705 35.892 305.563 37.8279 306.003 39.2442C306.039 39.3652 306.096 39.4791 306.16 39.5788L306.174 39.5859Z" fill="#1D462E"/>
<path d="M42.0872 44.2049C42.4712 41.9701 42.8197 39.7211 42.9264 37.4792C43.0331 35.1376 42.7201 32.7605 41.6178 30.6609C40.5368 28.5898 38.7589 26.9955 36.6112 26.0988C31.9388 24.1415 26.349 25.3017 22.0535 27.6717C17.1322 30.3905 13.3203 35.102 12.4669 40.746C11.9904 43.906 12.4526 47.1372 13.5194 50.1336C14.1808 51.4787 15.1195 52.4111 16.1934 52.9804C18.4265 54.169 21.2427 53.742 23.298 52.0267C24.379 51.13 25.3177 49.7492 25.6876 48.3116C26.1498 46.2405 26.1569 42.5324 23.5754 41.8491C21.513 41.3794 18.1065 44.6604 18.142 40.8243C18.2914 37.7639 21.9397 34.3761 25.4244 35.2088C26.6263 35.4508 27.814 36.2052 28.6745 37.045C33.7523 42.3901 30.6871 50.6033 25.9791 55.5925C0.988527 77.3996 -6.94105 26.113 34.4563 20.6257C37.8344 20.0919 41.2622 19.7716 44.6972 19.3801C48.822 19.0172 52.9184 18.1062 57.0005 17.2948C58.2948 17.4087 58.3873 18.8748 57.989 19.8712C55.2866 25.3515 53.6082 31.3228 52.0365 37.2087C50.1946 44.0982 48.5802 51.0446 46.6743 57.9198C44.9248 64.2256 43.1966 70.7521 40.1742 76.5882C36.2271 84.1965 30.1111 90.7657 22.2241 94.31C15.02 97.5484 5.156 95.9897 1.35123 88.3173C-0.654281 84.2677 -0.412482 79.1433 1.92728 75.2786C4.25992 71.4353 9.54394 69.1792 13.6474 67.834C22.6651 64.8804 32.4081 66.5387 41.7885 66.3181C44.6688 66.254 47.549 66.1686 50.4222 65.9765C53.2526 65.7914 56.1186 65.585 58.9278 65.1437C59.4967 65.0512 60.0657 64.9516 60.6346 64.8377C63.1593 64.3181 65.6413 63.4926 67.8601 62.1759C68.614 61.7275 69.3465 61.2222 69.9296 60.5674C70.8115 59.5781 71.4231 58.055 70.7546 56.7882C70.4346 56.1832 70.0648 55.4145 70.4915 54.8807C70.6692 54.6601 70.9466 54.5462 71.2168 54.4608C72.6961 54.0124 74.3887 54.3256 75.6119 55.2722C76.8351 56.2188 77.5605 57.7774 77.5036 59.3219C77.3258 64.0904 72.5325 67.4497 68.4575 68.8732C68.3722 68.9016 68.2868 68.9301 68.2015 68.9586C65.5275 69.8553 62.7183 70.2112 59.9163 70.4318C57.1001 70.6525 54.2838 70.8517 51.4534 70.9371C47.8904 71.051 44.3274 71.0297 40.7644 70.8731C33.0269 70.5386 25.1186 69.6062 17.6371 71.6133C15.6885 72.14 13.7612 72.8801 12.2179 74.1755C10.6747 75.4708 9.55816 77.3924 9.61506 79.4066C9.65061 80.7019 10.1698 81.9617 10.9521 82.9937C12.3531 84.8513 14.5862 86.0043 16.8975 86.3103C19.2088 86.6163 21.577 86.111 23.6892 85.1288C27.3304 83.4278 30.1822 80.3318 32.2588 76.8871C37.5713 68.0547 39.7901 57.7632 41.4685 47.7137C41.6605 46.5536 41.8739 45.3793 42.0801 44.2121L42.0872 44.2049Z" fill="#1D462E"/>
<path d="M88.5197 16.334C87.9294 18.035 86.4786 19.3588 85.2839 20.6684C83.7619 22.227 82.4036 23.9067 81.1235 25.6646C71.6436 39.351 63.7495 57.1796 61.4525 73.7057C60.6986 80.2464 60.087 89.0789 64.795 94.367C65.6626 95.342 66.7791 96.1392 68.0592 96.3954C69.3394 96.6516 70.7759 96.2957 71.6222 95.2993C72.6534 94.0823 72.2196 92.9507 71.6222 91.7265C70.5484 89.5344 72.4685 88.8796 74.3033 89.1928C76.2662 89.5273 78.0654 90.787 79.0611 92.5094C81.0168 95.8829 80.0283 100.438 76.9489 102.78C69.9581 108.089 60.7271 105.214 56.8654 97.7975C53.1317 90.6304 53.8429 81.1361 55.1799 73.4068C56.5738 65.3715 59.3545 57.6636 62.2419 50.0695C63.4864 46.8098 64.7594 43.5573 65.9613 40.2834C67.4334 36.2906 68.8344 32.2765 70.0221 28.1912C70.6764 25.928 71.2311 23.6291 71.6151 21.3018C71.7502 20.5047 72.0063 19.6435 72.5681 19.1168C73.2224 18.4691 74.2038 18.2129 75.0714 17.9567C78.4495 16.9888 81.8489 16.0351 85.2198 15.0956C86.4786 14.7113 89.1242 14.028 88.541 16.277L88.5268 16.3269L88.5197 16.334Z" fill="#1D462E"/>
<path d="M105.972 87.5487C105.374 87.079 105.815 86.0612 105.993 85.5061C107.821 79.6771 110.239 73.9193 111.37 67.9052C111.86 65.3146 112.116 62.6741 111.974 60.0549C111.917 58.9375 111.668 57.8486 111.519 56.7454C111.405 55.9199 111.291 54.8879 112.031 54.2473C112.33 53.9911 112.721 53.8416 113.105 53.7064C114.513 53.2011 115.95 52.774 117.329 52.1976C118.545 51.6922 119.719 50.8524 121.07 50.7314C121.49 50.6958 121.945 50.7528 122.251 51.009C122.77 51.4574 122.386 52.2616 122.869 52.6531C124.391 53.8915 128.004 48.1194 132.079 48.155C135.912 48.1336 137.029 51.9912 136.787 54.8879C136.531 59.0372 134.824 63.158 133.644 67.1864C132.719 69.9479 130.586 77.1647 132.641 79.5276C133.644 80.161 135.464 79.7696 135.037 81.556C134.746 82.5026 134.106 83.4777 133.309 84.1467C132.2 85.079 130.522 85.7338 129.071 85.9687C127.976 86.1466 126.802 86.0683 125.828 85.5986C124.725 85.0648 123.957 84.0613 123.566 82.9794C123.175 81.8976 123.118 80.7304 123.175 79.5845C123.374 75.6558 124.818 71.8624 126.326 68.197C127.592 65.1153 130.785 56.1476 127.279 56.0337C124.939 55.9626 123.524 58.0835 122.507 59.6208C117.536 67.1366 116.021 75.8765 115.914 84.7232C115.886 87.2782 113.766 87.2498 111.604 87.4277C109.834 87.5843 107.209 88.111 106.022 87.5629L105.986 87.5345L105.972 87.5487Z" fill="#1D462E"/>
<path d="M218.572 77.485C217.925 77.5063 217.391 76.9441 217.477 76.2964C217.519 75.9477 217.612 75.5989 217.697 75.3213C219.973 67.3003 223.202 59.2863 223.045 50.8026C223.024 49.5001 222.91 48.2048 222.711 46.9095C222.526 45.7351 222.284 44.0555 223.436 43.4363C224.631 42.7886 227.127 41.7993 228.983 41.0164C229.752 40.7317 230.512 40.2905 231.209 40.1837C231.593 40.1339 232.07 40.1837 232.34 40.4542C232.973 41.0734 233.158 41.7139 233.357 42.3118C235.299 43.2228 238.236 37.3938 241.578 37.5717C244.217 37.4365 245.874 39.956 246.144 42.3402C246.379 43.9843 246.265 45.7494 245.412 47.0945C244.444 48.7671 242.026 49.9841 240.22 49.13C239.871 48.945 239.601 48.639 239.431 48.2404C239.089 47.365 239.018 46.3615 238.158 45.8988C231.551 42.326 228.215 67.6063 228.18 71.2361C228.151 74.5954 228.656 76.5882 224.837 76.8729C223.735 76.9583 219.902 77.4565 218.579 77.4992L218.572 77.485Z" fill="#1D462E"/>
<path d="M147.504 73.9406C147.981 75.8338 149.083 77.0081 150.804 77.1647C154.573 77.4992 158.25 73.8837 160.298 71.5706C161.251 70.4959 162.887 71.1293 163.363 72.261C163.996 73.7769 162.631 76.1327 161.891 77.4707C158.343 83.9047 149.83 87.869 143.572 82.6236C140.03 79.6557 139.61 75.4993 139.617 71.172C139.617 67.1864 140.137 63.1082 141.424 59.3219C143.55 53.0659 149.432 46.3899 156.486 46.1764C161.109 46.3188 162.93 50.4823 162.965 54.2188C163.029 60.7951 160.028 66.311 155.078 68.3963C153.187 69.1934 150.534 69.8838 147.305 70.4034C147.042 70.9727 147.319 73.2147 147.504 73.9477V73.9406ZM155.633 60.5176C156.415 58.9091 156.785 56.902 156.088 55.3789C155.754 54.653 155.085 54.0409 154.296 53.9342C153.763 53.863 153.222 54.0267 152.739 54.2544C151.202 54.9804 150.129 56.4465 149.481 57.9767C148.656 59.934 148.215 62.1901 148.294 64.3182C148.301 64.5388 151.259 64.1616 151.558 64.0833C152.81 63.7417 153.933 62.9659 154.737 61.9552C155.064 61.5424 155.37 61.0514 155.633 60.5176Z" fill="#1D462E"/>
<path d="M96.7053 86.6377C91.6275 91.8119 84.4731 92.3315 80.8106 85.4562C78.3997 80.8941 78.5846 74.752 79.8931 69.6134C82.0338 61.4286 87.2182 53.3434 94.2162 51.5357C96.9826 50.8738 99.806 51.5072 101.89 53.6993C105.623 57.749 106.007 64.6455 104.678 71.0154C103.469 76.9441 100.396 83.072 96.7408 86.5879L96.6982 86.6306L96.7053 86.6377ZM97.8645 58.7027C96.7195 57.7276 94.586 58.297 93.0641 59.7916C90.3972 62.1474 87.901 67.343 87.1258 71.7414C85.0705 83.0079 91.5919 84.7588 96.5133 76.453C98.6539 72.9229 100.247 67.4924 99.806 63.2435C99.5784 60.9873 98.8815 59.4642 97.8787 58.724L97.8574 58.7098L97.8645 58.7027Z" fill="#1D462E"/>
<path d="M271.284 72.631C270.687 72.1613 271.128 71.1435 271.305 70.5884C273.133 64.7594 275.551 59.0016 276.682 52.9876C277.172 50.3969 277.429 47.7564 277.286 45.1373C277.229 44.0199 276.98 42.931 276.831 41.8278C276.717 41.0022 276.604 39.9702 277.343 39.3297C277.642 39.0734 278.033 38.924 278.417 38.7887C279.825 38.2834 281.262 37.8564 282.641 37.2799C283.858 36.7746 285.031 35.9347 286.382 35.8138C286.802 35.7782 287.257 35.8351 287.563 36.0913C288.082 36.5397 287.698 37.344 288.181 37.7354C289.703 38.9738 293.316 33.2017 297.391 33.2373C301.224 33.216 302.341 37.0735 302.099 39.9702C301.843 44.1195 300.136 48.2404 298.956 52.2687C298.031 55.0302 295.898 62.247 297.953 64.61C298.956 65.2434 300.776 64.8519 300.35 66.6384C300.058 67.5849 299.418 68.56 298.621 69.229C297.512 70.1614 295.834 70.8162 294.383 71.051C293.288 71.229 292.114 71.1507 291.14 70.6809C290.038 70.1471 289.27 69.1436 288.878 68.0618C288.487 66.98 288.43 65.8128 288.487 64.6669C288.686 60.7382 290.13 56.9447 291.638 53.2794C292.904 50.1976 296.097 41.2299 292.591 41.1161C290.251 41.0449 288.836 43.1658 287.819 44.7031C282.848 52.2189 281.333 60.9588 281.226 69.8055C281.198 72.3606 279.078 72.3321 276.916 72.51C275.146 72.6666 272.521 73.1933 271.334 72.6453L271.298 72.6168L271.284 72.631Z" fill="#1D462E"/>
<path d="M262.7 71.6631C257.622 76.8373 250.468 77.3569 246.805 70.4816C244.395 65.9195 244.579 59.7774 245.888 54.6388C248.029 46.454 253.213 38.3688 260.211 36.5611C262.978 35.8992 265.801 36.5326 267.885 38.7247C271.618 42.7744 272.002 49.671 270.672 56.0408C269.463 61.9695 266.391 68.0974 262.736 71.6133L262.693 71.656L262.7 71.6631ZM263.866 43.7281C262.721 42.753 260.588 43.3224 259.066 44.817C256.399 47.1728 253.903 52.3684 253.128 56.7668C251.072 68.0333 257.594 69.7842 262.515 61.4784C264.656 57.9483 266.249 52.5178 265.808 48.2689C265.58 46.0127 264.883 44.4896 263.881 43.7494L263.859 43.7352L263.866 43.7281Z" fill="#1D462E"/>
<path d="M184.763 70.8446C185.268 70.4745 185.772 70.1116 186.285 69.7557C187.081 69.2148 189.698 67.8839 189.442 70.1329C189.2 72.2681 186.96 74.1114 185.46 75.4566C182.75 77.8978 179.749 80.3247 176.207 81.3781C174.429 81.9048 172.466 82.4741 170.653 81.7482C168.64 80.9439 167.972 78.9725 167.751 76.9868C167.474 74.51 168.007 72.019 168.598 69.6347C169.359 66.5601 170.489 63.578 171.165 60.482C171.741 57.9838 172.545 54.347 171.677 51.8559C171.3 50.9165 170.219 50.4538 169.7 49.6354C167.972 46.3686 176.378 42.5466 179.372 46.4042C182.508 50.7955 178.895 59.1368 177.274 64.1616C176.712 66.0192 176.122 67.8839 175.816 69.8126C175.546 71.4852 175.126 74.3676 177.509 74.6808C178.639 74.8303 179.735 74.268 180.716 73.6773C182.138 72.8232 183.44 71.8197 184.763 70.8446Z" fill="#1D462E"/>
<path d="M198.474 46.0839C198.652 46.0839 198.823 46.1195 198.972 46.2049C199.626 46.5679 199.548 47.5216 199.37 48.2546C196.319 61.0798 193.162 73.9264 188.468 86.2463C186.832 90.5308 184.99 94.8011 182.202 98.4451C177.8 104.203 170.632 107.826 163.292 106.843C155.562 104.865 159.616 96.2246 164.174 93.0076C169.387 88.5238 176.278 86.8726 182.999 86.5452C195.7 84.5951 227.575 93.2353 233.101 77.3996C233.983 74.8801 236.444 76.5028 237.091 78.0757C240.277 85.7907 233.727 92.1678 226.686 93.9257C223.059 94.8367 219.262 94.8296 215.528 94.609C207.392 94.1321 199.342 92.6802 191.284 91.4632C185.73 90.6233 179.45 89.5842 173.974 91.392C170.155 92.6517 166.073 95.7192 167.069 100.253C170.297 104.167 175.752 99.6266 177.658 96.4096C179.287 93.6624 180.211 90.5308 181.221 87.4918C182.302 84.2321 183.291 80.9439 184.179 77.6202C186.647 68.4248 188.802 59.0799 190.175 49.6852C190.246 49.2012 190.338 48.6888 190.651 48.3116C191.028 47.8561 191.647 47.6995 192.23 47.5714C194.342 47.0874 195.622 46.6746 197.734 46.1835C197.969 46.1266 198.225 46.0768 198.46 46.0839H198.474Z" fill="#1D462E"/>
<path d="M317.716 16.0208C316.301 16.6685 316.209 18.519 315.917 19.8285C315.519 21.6292 315.121 23.4298 314.722 25.2305C313.926 28.8318 313.129 32.4331 312.34 36.0273C311.999 37.5575 311.6 39.0806 311.209 40.5965C310.967 41.5431 310.711 42.4897 310.448 43.4363C309.325 47.5216 308.222 51.6068 307.156 55.7063C306.323 58.902 304.858 63.4783 306.935 66.5102C307.646 67.5494 308.777 68.254 309.972 68.6596C312.688 69.5778 315.739 69.4639 318.356 68.3038C320.063 67.5494 321.642 66.4604 322.929 65.1082C323.932 64.0477 326.208 61.5353 324.949 60.1048C322.922 57.7917 320.853 60.3823 318.826 61.3076C318.243 61.578 317.574 61.7133 316.948 61.5709C316.266 61.4143 315.675 60.9375 315.313 60.3396C313.769 57.813 315.277 54.0551 315.853 51.4574C316.387 49.0233 316.963 46.5892 317.567 44.1694C318.84 39.0806 320.284 34.0273 321.806 29.0097C322.524 26.6255 323.178 24.1415 323.783 21.7003C324.096 20.4406 324.387 19.1737 324.65 17.9069C325.084 15.8287 323.441 15.1739 321.656 15.3447C320.44 15.4657 318.904 15.5013 317.78 15.9995L317.738 16.0208H317.716Z" fill="#1D462E"/>
<path d="M237.923 34.7533C236.6 35.3938 234.267 36.0771 233.599 34.1697C233.343 33.3726 233.201 32.4687 232.546 31.9064C228.941 29.1592 223.593 33.0025 220.208 34.6964C219.575 35.0309 218.942 35.3511 218.309 35.6643C215.706 36.9525 213.06 38.1411 210.4 39.3083C209.433 39.7211 208.452 40.1054 207.406 40.262C204.704 40.7887 201.859 38.7959 201.639 35.7853C201.489 33.8138 202.471 33.2658 204.035 34.1768C213.686 38.1624 223.294 28.3834 231.963 25.3301C234.758 24.4476 238.904 23.2163 240.974 26.2482C242.723 29.2446 240.689 33.4153 237.973 34.7177L237.923 34.7391V34.7533Z" fill="#1D462E"/>
<path d="M196.753 72.0118C198.055 71.1151 199.029 73.4709 200.451 72.7307C201.497 72.2396 202.122 71.2005 202.642 70.2254C203.879 67.8269 204.868 65.2932 205.678 62.7168C209.704 49.6994 211.09 35.9917 215.443 23.0384C218.97 12.4836 225.228 4.14933 236.351 1.06758C241.82 -0.37721 253.213 -1.17434 256.477 4.32726C258.831 8.59758 256.634 12.9533 252.907 15.4728C251.051 16.7254 248.932 17.5297 246.777 18.1346C239.566 20.1488 231.999 20.2627 224.581 19.6933C220.997 19.4228 217.406 19.0172 213.835 18.583C212.043 18.3624 210.258 18.1062 208.466 17.9069C206.674 17.7076 204.732 17.3802 202.983 17.6151C200.757 17.914 198.325 19.0527 197.82 21.4512C197.72 21.921 197.699 22.405 197.727 22.8818C197.791 24.0988 197.542 24.8675 196.163 24.6967C192.6 24.2483 190.054 20.1915 191.021 16.7752C191.562 14.8607 193.012 13.2807 194.755 12.3341C199.128 9.95697 204.604 11.2025 209.156 12.327C214.291 13.5939 219.375 15.0885 224.617 15.8856C231.216 16.8891 238.243 16.7183 244.217 13.7362C245.148 13.2665 246.073 12.7256 246.749 11.9284C247.424 11.1313 247.844 10.0566 247.63 9.03885C247.431 8.07802 246.706 7.28802 245.845 6.81828C244.508 6.09233 242.78 5.94286 241.28 5.98557C233.962 6.18485 228.749 10.3413 225.3 16.4621C222.263 21.6149 220.25 27.2874 218.75 33.0523C215.613 45.301 214.369 57.9269 211.133 70.1471C210.386 72.688 209.284 75.2288 207.577 77.2572C205.287 80.1183 200.721 80.3959 198.695 78.7163C197.137 77.4209 195.068 73.9193 196.703 72.0546L196.746 72.019L196.753 72.0118Z" fill="#1D462E"/>
<path d="M248.263 92.0681C248.185 92.0681 248.121 92.0396 248.064 91.9898C248.014 91.94 247.986 91.8759 247.986 91.7905V84.7018C247.986 84.6235 248.014 84.5595 248.064 84.5025C248.114 84.4527 248.178 84.4242 248.263 84.4242H251.151C252.061 84.4242 252.772 84.6306 253.298 85.0506C253.825 85.4705 254.081 86.0683 254.081 86.8583C254.081 87.3921 253.953 87.8334 253.697 88.1892C253.441 88.5451 253.099 88.8084 252.673 88.9864L254.209 91.7123C254.23 91.755 254.244 91.7977 254.244 91.8332C254.244 91.8902 254.223 91.9471 254.18 91.9898C254.138 92.0396 254.081 92.061 254.017 92.061H252.808C252.68 92.061 252.58 92.0254 252.516 91.9542C252.452 91.8831 252.402 91.819 252.374 91.7621L251.044 89.2639H249.728V91.7834C249.728 91.8617 249.7 91.9258 249.65 91.9827C249.6 92.0325 249.536 92.061 249.451 92.061H248.263V92.0681ZM249.728 87.8974H251.122C251.52 87.8974 251.819 87.8049 252.011 87.627C252.203 87.4491 252.303 87.1928 252.303 86.8654C252.303 86.538 252.21 86.2818 252.018 86.0897C251.826 85.8975 251.535 85.805 251.122 85.805H249.728V87.8974Z" fill="#1D462E"/>
<path d="M256.314 92.0681C256.236 92.0681 256.172 92.0396 256.115 91.9898C256.065 91.94 256.036 91.8759 256.036 91.7905V84.7018C256.036 84.6235 256.065 84.5595 256.115 84.5025C256.164 84.4527 256.228 84.4242 256.314 84.4242H261.249C261.328 84.4242 261.392 84.4527 261.448 84.5025C261.505 84.5524 261.527 84.6164 261.527 84.7018V85.5772C261.527 85.6484 261.498 85.7125 261.448 85.7623C261.399 85.8121 261.335 85.8406 261.249 85.8406H257.722V87.5487H261.015C261.093 87.5487 261.157 87.5772 261.214 87.627C261.263 87.6768 261.292 87.7409 261.292 87.8263V88.6305C261.292 88.7017 261.263 88.7657 261.214 88.8156C261.164 88.8654 261.1 88.8938 261.015 88.8938H257.722V90.6589H261.342C261.42 90.6589 261.484 90.6874 261.541 90.7372C261.591 90.787 261.619 90.8511 261.619 90.9365V91.7977C261.619 91.8759 261.591 91.94 261.541 91.9969C261.491 92.0539 261.427 92.0752 261.342 92.0752H256.321L256.314 92.0681Z" fill="#1D462E"/>
<path d="M266.27 92.182C265.573 92.182 264.99 92.0823 264.521 91.876C264.051 91.6696 263.696 91.4062 263.461 91.0788C263.219 90.7514 263.091 90.4027 263.077 90.0326C263.077 89.9757 263.098 89.9187 263.141 89.876C263.184 89.8262 263.241 89.8048 263.305 89.8048H264.471C264.563 89.8048 264.634 89.8262 264.691 89.8618C264.741 89.9045 264.791 89.9472 264.834 90.0112C264.883 90.1322 264.969 90.2532 265.075 90.3742C265.189 90.4881 265.346 90.5877 265.538 90.666C265.73 90.7443 265.979 90.7799 266.27 90.7799C266.74 90.7799 267.095 90.7016 267.33 90.5522C267.565 90.4027 267.685 90.1892 267.685 89.933C267.685 89.7408 267.621 89.5913 267.493 89.4775C267.365 89.3636 267.166 89.2568 266.896 89.1643C266.626 89.0718 266.263 88.965 265.815 88.8583C265.267 88.7444 264.805 88.5878 264.428 88.4028C264.044 88.2177 263.76 87.9757 263.568 87.6839C263.376 87.3921 263.276 87.022 263.276 86.5879C263.276 86.1537 263.397 85.7623 263.639 85.4278C263.881 85.0933 264.215 84.8228 264.649 84.6306C265.083 84.4385 265.602 84.3388 266.206 84.3388C266.69 84.3388 267.124 84.4029 267.493 84.5381C267.863 84.6733 268.176 84.837 268.432 85.0506C268.681 85.2641 268.873 85.4847 269.001 85.7267C269.129 85.9687 269.2 86.1964 269.207 86.4242C269.207 86.4811 269.186 86.5381 269.143 86.5808C269.101 86.6306 269.044 86.6519 268.98 86.6519H267.757C267.685 86.6519 267.621 86.6377 267.557 86.6092C267.501 86.5808 267.451 86.5309 267.415 86.4598C267.372 86.2747 267.244 86.1039 267.031 85.9616C266.818 85.8192 266.54 85.748 266.199 85.748C265.858 85.748 265.559 85.8121 265.353 85.9473C265.147 86.0826 265.04 86.2747 265.04 86.5452C265.04 86.7231 265.09 86.8654 265.196 86.9864C265.303 87.1074 265.481 87.2142 265.73 87.2996C265.979 87.3921 266.313 87.4918 266.725 87.5985C267.365 87.7266 267.885 87.8832 268.283 88.0682C268.681 88.2462 268.98 88.4811 269.165 88.7729C269.357 89.0575 269.449 89.4205 269.449 89.8547C269.449 90.3386 269.314 90.7585 269.044 91.1073C268.774 91.456 268.397 91.7265 267.92 91.9115C267.444 92.0966 266.889 92.1891 266.256 92.1891L266.27 92.182Z" fill="#1D462E"/>
<path d="M273.126 92.0681C273.048 92.0681 272.984 92.0396 272.927 91.9898C272.87 91.94 272.849 91.8759 272.849 91.7905V85.9473H270.864C270.793 85.9473 270.729 85.9189 270.679 85.869C270.63 85.8192 270.601 85.7552 270.601 85.684V84.7018C270.601 84.6235 270.63 84.5595 270.679 84.5025C270.729 84.4527 270.793 84.4242 270.864 84.4242H276.575C276.653 84.4242 276.717 84.4527 276.774 84.5025C276.824 84.5524 276.852 84.6164 276.852 84.7018V85.684C276.852 85.7552 276.824 85.8192 276.774 85.869C276.724 85.9189 276.66 85.9473 276.575 85.9473H274.605V91.7905C274.605 91.8688 274.577 91.9329 274.527 91.9898C274.477 92.0396 274.413 92.0681 274.328 92.0681H273.119H273.126Z" fill="#1D462E"/>
<path d="M277.286 92.0681C277.222 92.0681 277.165 92.0468 277.123 91.9969C277.08 91.9471 277.059 91.8973 277.059 91.8404C277.059 91.8048 277.059 91.7692 277.073 91.7407L279.669 84.7303C279.69 84.652 279.733 84.5808 279.797 84.5239C279.861 84.4669 279.953 84.4385 280.067 84.4385H281.461C281.575 84.4385 281.667 84.4669 281.731 84.5239C281.795 84.5808 281.838 84.652 281.859 84.7303L284.455 91.7407C284.455 91.7407 284.469 91.8048 284.469 91.8404C284.469 91.8973 284.448 91.9542 284.405 91.9969C284.362 92.0468 284.306 92.0681 284.242 92.0681H283.111C283.004 92.0681 282.919 92.0396 282.869 91.9898C282.819 91.94 282.784 91.8902 282.769 91.8475L282.3 90.6304H279.228L278.758 91.8475C278.744 91.8902 278.709 91.94 278.659 91.9898C278.609 92.0396 278.531 92.0681 278.417 92.0681H277.286ZM279.626 89.2284H281.88L280.757 86.0897L279.626 89.2284Z" fill="#1D462E"/>
<path d="M288.964 92.182C288.324 92.182 287.769 92.0752 287.285 91.8617C286.809 91.6482 286.439 91.3137 286.176 90.8724C285.913 90.424 285.785 89.8547 285.785 89.1643V84.716C285.785 84.6378 285.813 84.5737 285.863 84.5168C285.913 84.4669 285.977 84.4385 286.062 84.4385H287.25C287.328 84.4385 287.392 84.4669 287.449 84.5168C287.499 84.5666 287.527 84.6306 287.527 84.716V89.1501C287.527 89.691 287.655 90.0895 287.911 90.3529C288.167 90.6162 288.523 90.7443 288.978 90.7443C289.433 90.7443 289.782 90.6162 290.038 90.3529C290.294 90.0895 290.422 89.691 290.422 89.1501V84.716C290.422 84.6378 290.45 84.5737 290.507 84.5168C290.564 84.4669 290.628 84.4385 290.699 84.4385H291.894C291.965 84.4385 292.029 84.4669 292.079 84.5168C292.128 84.5666 292.157 84.6306 292.157 84.716V89.1643C292.157 89.8547 292.029 90.424 291.766 90.8724C291.503 91.3208 291.14 91.6482 290.663 91.8617C290.194 92.0752 289.632 92.182 288.985 92.182H288.964Z" fill="#1D462E"/>
<path d="M294.575 92.0681C294.497 92.0681 294.433 92.0396 294.376 91.9898C294.326 91.94 294.298 91.8759 294.298 91.7905V84.7018C294.298 84.6235 294.326 84.5595 294.376 84.5025C294.426 84.4527 294.49 84.4242 294.575 84.4242H297.462C298.373 84.4242 299.084 84.6306 299.61 85.0506C300.136 85.4705 300.392 86.0683 300.392 86.8583C300.392 87.3921 300.264 87.8334 300.008 88.1892C299.752 88.5451 299.411 88.8084 298.984 88.9864L300.52 91.7123C300.542 91.755 300.556 91.7977 300.556 91.8332C300.556 91.8902 300.535 91.9471 300.492 91.9898C300.449 92.0396 300.392 92.061 300.328 92.061H299.119C298.991 92.061 298.892 92.0254 298.828 91.9542C298.764 91.8831 298.714 91.819 298.685 91.7621L297.356 89.2639H296.04V91.7834C296.04 91.8617 296.011 91.9258 295.962 91.9827C295.912 92.0325 295.848 92.061 295.763 92.061H294.575V92.0681ZM296.033 87.8974H297.427C297.825 87.8974 298.124 87.8049 298.316 87.627C298.508 87.4491 298.607 87.1928 298.607 86.8654C298.607 86.538 298.515 86.2818 298.323 86.0897C298.131 85.8975 297.839 85.805 297.427 85.805H296.033V87.8974Z" fill="#1D462E"/>
<path d="M301.907 92.0681C301.843 92.0681 301.786 92.0468 301.744 91.9969C301.701 91.9471 301.68 91.8973 301.68 91.8404C301.68 91.8048 301.679 91.7692 301.694 91.7407L304.289 84.7303C304.311 84.652 304.353 84.5808 304.418 84.5239C304.482 84.4669 304.574 84.4385 304.688 84.4385H306.082C306.195 84.4385 306.288 84.4669 306.352 84.5239C306.416 84.5808 306.459 84.652 306.48 84.7303L309.076 91.7407C309.076 91.7407 309.09 91.8048 309.09 91.8404C309.09 91.8973 309.069 91.9542 309.026 91.9969C308.983 92.0468 308.926 92.0681 308.862 92.0681H307.732C307.625 92.0681 307.54 92.0396 307.49 91.9898C307.44 91.94 307.404 91.8902 307.39 91.8475L306.921 90.6304H303.849L303.379 91.8475C303.365 91.8902 303.329 91.94 303.28 91.9898C303.23 92.0396 303.152 92.0681 303.038 92.0681H301.907ZM304.247 89.2284H306.501L305.378 86.0897L304.247 89.2284Z" fill="#1D462E"/>
<path d="M310.911 92.0681C310.832 92.0681 310.768 92.0396 310.711 91.9898C310.662 91.94 310.633 91.8759 310.633 91.7905V84.7018C310.633 84.6235 310.662 84.5595 310.711 84.5025C310.761 84.4527 310.825 84.4242 310.911 84.4242H311.899C312.006 84.4242 312.091 84.4527 312.141 84.5025C312.191 84.5524 312.226 84.5951 312.24 84.6235L315.149 89.1714V84.7018C315.149 84.6235 315.178 84.5595 315.227 84.5025C315.277 84.4456 315.341 84.4242 315.412 84.4242H316.522C316.6 84.4242 316.664 84.4527 316.721 84.5025C316.778 84.5524 316.799 84.6164 316.799 84.7018V91.7905C316.799 91.8617 316.771 91.9258 316.721 91.9827C316.671 92.0396 316.607 92.0681 316.522 92.0681H315.519C315.412 92.0681 315.334 92.0396 315.284 91.9827C315.234 91.9258 315.206 91.8902 315.178 91.8688L312.283 87.4633V91.7905C312.283 91.8688 312.255 91.9329 312.205 91.9898C312.155 92.0396 312.091 92.0681 312.006 92.0681H310.903H310.911Z" fill="#1D462E"/>
<path d="M320.981 92.0681C320.902 92.0681 320.838 92.0396 320.782 91.9898C320.725 91.94 320.703 91.8759 320.703 91.7905V85.9473H318.719C318.648 85.9473 318.584 85.9189 318.534 85.869C318.484 85.8192 318.456 85.7552 318.456 85.684V84.7018C318.456 84.6235 318.484 84.5595 318.534 84.5025C318.584 84.4527 318.648 84.4242 318.719 84.4242H324.43C324.508 84.4242 324.572 84.4527 324.629 84.5025C324.679 84.5524 324.707 84.6164 324.707 84.7018V85.684C324.707 85.7552 324.679 85.8192 324.629 85.869C324.579 85.9189 324.515 85.9473 324.43 85.9473H322.46V91.7905C322.46 91.8688 322.432 91.9329 322.382 91.9898C322.332 92.0396 322.268 92.0681 322.183 92.0681H320.974H320.981Z" fill="#1D462E"/>
<path d="M247.545 104.061C247.481 104.061 247.424 104.039 247.381 103.989C247.339 103.94 247.317 103.89 247.317 103.833C247.317 103.797 247.317 103.762 247.332 103.733L249.927 96.7228C249.949 96.6445 249.991 96.5733 250.055 96.5164C250.119 96.4594 250.212 96.431 250.326 96.431H251.72C251.833 96.431 251.926 96.4594 251.99 96.5164C252.054 96.5733 252.097 96.6445 252.118 96.7228L254.714 103.733C254.714 103.733 254.728 103.797 254.728 103.833C254.728 103.89 254.707 103.947 254.664 103.989C254.621 104.039 254.564 104.061 254.5 104.061H253.37C253.263 104.061 253.177 104.032 253.128 103.982C253.078 103.932 253.042 103.883 253.028 103.84L252.559 102.623H249.487L249.017 103.84C249.003 103.883 248.967 103.932 248.918 103.982C248.868 104.032 248.79 104.061 248.676 104.061H247.545ZM249.892 101.221H252.146L251.023 98.0822L249.892 101.221Z" fill="#1D462E"/>
<path d="M256.556 104.061C256.477 104.061 256.413 104.032 256.356 103.982C256.307 103.932 256.278 103.868 256.278 103.783V96.6943C256.278 96.616 256.307 96.5519 256.356 96.495C256.406 96.4452 256.47 96.4167 256.556 96.4167H257.544C257.651 96.4167 257.736 96.4452 257.786 96.495C257.836 96.5448 257.871 96.5875 257.885 96.616L260.794 101.164V96.6943C260.794 96.616 260.823 96.5519 260.872 96.495C260.922 96.4381 260.986 96.4167 261.057 96.4167H262.167C262.245 96.4167 262.309 96.4452 262.366 96.495C262.423 96.5448 262.444 96.6089 262.444 96.6943V103.783C262.444 103.854 262.416 103.918 262.366 103.975C262.316 104.032 262.252 104.061 262.167 104.061H261.164C261.057 104.061 260.979 104.032 260.929 103.975C260.879 103.918 260.851 103.883 260.823 103.861L257.928 99.4558V103.783C257.928 103.861 257.9 103.925 257.85 103.982C257.8 104.032 257.736 104.061 257.651 104.061H256.548H256.556Z" fill="#1D462E"/>
<path d="M264.94 104.061C264.862 104.061 264.798 104.032 264.741 103.982C264.691 103.932 264.663 103.868 264.663 103.783V96.6943C264.663 96.616 264.691 96.5519 264.741 96.495C264.791 96.4452 264.855 96.4167 264.94 96.4167H267.671C268.397 96.4167 269.001 96.5306 269.492 96.7583C269.975 96.9861 270.352 97.3206 270.608 97.7619C270.864 98.2031 271 98.744 271.014 99.3917C271.021 99.712 271.028 99.9896 271.028 100.232C271.028 100.474 271.028 100.751 271.014 101.057C270.992 101.733 270.857 102.296 270.608 102.737C270.359 103.178 269.997 103.505 269.52 103.726C269.044 103.94 268.439 104.046 267.721 104.046H264.933L264.94 104.061ZM266.405 102.659H267.678C268.041 102.659 268.34 102.602 268.574 102.495C268.809 102.388 268.98 102.21 269.094 101.975C269.207 101.74 269.264 101.434 269.271 101.057C269.271 100.844 269.286 100.659 269.286 100.488C269.286 100.324 269.286 100.153 269.286 99.9896C269.286 99.8187 269.278 99.6337 269.271 99.4344C269.257 98.8864 269.115 98.4878 268.852 98.2316C268.589 97.9754 268.176 97.8473 267.629 97.8473H266.405V102.666V102.659Z" fill="#1D462E"/>
<path d="M276.319 104.061C276.241 104.061 276.177 104.032 276.12 103.982C276.07 103.932 276.042 103.868 276.042 103.783V96.6943C276.042 96.616 276.07 96.5519 276.12 96.495C276.17 96.4452 276.234 96.4167 276.319 96.4167H279.555C280.159 96.4167 280.65 96.5021 281.034 96.6801C281.418 96.858 281.703 97.1 281.888 97.4202C282.072 97.7405 282.165 98.1177 282.165 98.5448C282.165 98.8152 282.115 99.0501 282.016 99.2565C281.916 99.4629 281.795 99.6266 281.653 99.7618C281.511 99.897 281.375 99.9896 281.247 100.054C281.532 100.182 281.781 100.402 281.994 100.701C282.208 101 282.314 101.363 282.314 101.776C282.314 102.231 282.215 102.637 282.008 102.972C281.802 103.313 281.503 103.577 281.105 103.769C280.707 103.961 280.216 104.053 279.647 104.053H276.312L276.319 104.061ZM277.777 99.5198H279.349C279.69 99.5198 279.946 99.4344 280.117 99.2636C280.287 99.0928 280.373 98.8721 280.373 98.6017C280.373 98.3312 280.287 98.1177 280.117 97.954C279.946 97.7903 279.69 97.712 279.349 97.712H277.777V99.5198ZM277.777 102.787H279.441C279.797 102.787 280.067 102.687 280.245 102.488C280.43 102.288 280.515 102.054 280.515 101.776C280.515 101.498 280.423 101.256 280.238 101.064C280.053 100.872 279.782 100.772 279.434 100.772H277.77V102.787H277.777Z" fill="#1D462E"/>
<path d="M283.68 104.061C283.616 104.061 283.559 104.039 283.516 103.989C283.473 103.94 283.452 103.89 283.452 103.833C283.452 103.797 283.452 103.762 283.466 103.733L286.062 96.7228C286.083 96.6445 286.126 96.5733 286.19 96.5164C286.254 96.4594 286.347 96.431 286.46 96.431H287.854C287.968 96.431 288.061 96.4594 288.125 96.5164C288.189 96.5733 288.231 96.6445 288.253 96.7228L290.848 103.733C290.848 103.733 290.863 103.797 290.863 103.833C290.863 103.89 290.841 103.947 290.799 103.989C290.756 104.039 290.699 104.061 290.635 104.061H289.504C289.398 104.061 289.312 104.032 289.262 103.982C289.213 103.932 289.177 103.883 289.163 103.84L288.693 102.623H285.621L285.152 103.84C285.138 103.883 285.102 103.932 285.052 103.982C285.003 104.032 284.924 104.061 284.81 104.061H283.68ZM286.019 101.221H288.274L287.15 98.0822L286.019 101.221Z" fill="#1D462E"/>
<path d="M292.69 104.061C292.612 104.061 292.548 104.032 292.491 103.982C292.441 103.932 292.413 103.868 292.413 103.783V96.6943C292.413 96.616 292.441 96.5519 292.491 96.495C292.541 96.4452 292.605 96.4167 292.69 96.4167H295.578C296.488 96.4167 297.199 96.6231 297.725 97.043C298.252 97.4629 298.508 98.0608 298.508 98.8508C298.508 99.3846 298.38 99.8259 298.124 100.182C297.868 100.538 297.526 100.801 297.1 100.979L298.636 103.705C298.657 103.747 298.671 103.79 298.671 103.826C298.671 103.883 298.65 103.94 298.607 103.982C298.565 104.032 298.508 104.053 298.444 104.053H297.235C297.107 104.053 297.007 104.018 296.943 103.947C296.879 103.876 296.829 103.811 296.801 103.755L295.471 101.256H294.155V103.776C294.155 103.854 294.127 103.918 294.077 103.975C294.027 104.025 293.963 104.053 293.878 104.053H292.69V104.061ZM294.148 99.8899H295.542C295.94 99.8899 296.239 99.7974 296.431 99.6195C296.623 99.4415 296.723 99.1853 296.723 98.8579C296.723 98.5305 296.63 98.2743 296.438 98.0821C296.246 97.89 295.955 97.7975 295.542 97.7975H294.148V99.8899Z" fill="#1D462E"/>
</g>
<defs>
<clipPath id="clip0_1_5351">
<rect width="328" height="107" fill="white"/>
</clipPath>
</defs>
</svg>
