<svg width="261" height="261" viewBox="0 0 261 261" fill="none" xmlns="http://www.w3.org/2000/svg">
<g clip-path="url(#clip0_1_620)">
<path d="M190.535 200.446C229.177 167.277 233.615 109.063 200.446 70.4204C167.277 31.778 109.063 27.3408 70.4202 60.5095C31.7779 93.6783 27.3407 151.893 60.5094 190.535C93.6782 229.177 151.893 233.615 190.535 200.446Z" fill="#1D462E"/>
<path d="M182.463 191.041C149.067 219.706 98.5895 215.849 69.9339 182.464C41.2784 149.08 45.1067 98.5897 78.5019 69.9249C111.897 41.2601 162.375 45.1177 191.04 78.5128C219.705 111.908 215.847 162.386 182.463 191.041ZM80.2033 71.9071C47.9069 99.6287 44.1852 148.456 71.9069 180.752C99.6285 213.048 148.456 216.77 180.752 189.049C213.048 161.327 216.77 112.5 189.048 80.2035C161.327 47.9071 112.5 44.1854 80.2033 71.9071Z" fill="#FCF6E7"/>
<path d="M186.42 195.652C150.483 226.499 96.1503 222.358 65.3032 186.42C34.4562 150.483 38.5976 96.1503 74.535 65.3033C110.472 34.4563 164.805 38.5976 195.652 74.5351C226.499 110.473 222.358 164.805 186.42 195.652ZM75.395 66.3051C40.0069 96.6806 35.9297 150.172 66.3051 185.56C96.6805 220.948 150.192 225.027 185.58 194.652C220.968 164.276 225.047 110.765 194.672 75.3765C164.296 39.9884 110.783 35.9297 75.395 66.3051Z" fill="#FCF6E7"/>
<path d="M90.0797 142.178C89.8995 142.164 89.7439 142.092 89.6237 141.952L78.3057 128.766C78.1763 128.616 78.1284 128.451 78.1422 128.271C78.1559 128.09 78.2374 127.946 78.3775 127.825L87.7066 119.818C87.8574 119.688 88.0129 119.63 88.193 119.643C88.3732 119.657 88.518 119.739 88.6475 119.889L90.4043 121.936C90.5246 122.076 90.5832 122.232 90.5694 122.412C90.5557 122.592 90.4834 122.748 90.3326 122.877L84.063 128.259L86.6243 131.243L92.4846 126.213C92.6354 126.083 92.8002 126.035 92.9803 126.049C93.1605 126.063 93.3146 126.155 93.444 126.306L95.1824 128.331C95.3026 128.471 95.3612 128.627 95.3475 128.807C95.3337 128.987 95.2615 129.143 95.1107 129.272L89.2504 134.302L93.1802 138.881C93.3097 139.031 93.3683 139.187 93.3546 139.367C93.3408 139.547 93.2593 139.692 93.1085 139.821L90.5554 142.013C90.4153 142.133 90.2506 142.181 90.0704 142.167L90.0797 142.178Z" fill="#F4ECE1"/>
<path d="M103.621 130.555C103.441 130.541 103.285 130.469 103.165 130.329L91.8469 117.143C91.7175 116.992 91.6696 116.828 91.6834 116.648C91.6971 116.467 91.7786 116.323 91.9187 116.202L97.4342 111.468C99.2009 109.952 100.933 109.157 102.617 109.115C104.302 109.072 105.768 109.778 107.035 111.253C107.849 112.201 108.316 113.204 108.439 114.24C108.561 115.276 108.391 116.32 107.9 117.34L114.961 119.942C115.078 119.991 115.155 120.037 115.22 120.113C115.312 120.221 115.352 120.354 115.34 120.515C115.328 120.675 115.268 120.801 115.16 120.894L112.467 123.205C112.079 123.538 111.642 123.595 111.166 123.368L105.022 120.896L102.953 122.671L106.818 127.174C106.948 127.325 106.996 127.49 106.982 127.67C106.968 127.85 106.876 128.004 106.725 128.134L104.107 130.381C103.967 130.501 103.803 130.549 103.622 130.535L103.621 130.555ZM102.81 117.818C103.435 117.281 103.779 116.724 103.843 116.145C103.908 115.566 103.709 115.007 103.237 114.458C102.765 113.908 102.243 113.627 101.653 113.572C101.064 113.517 100.449 113.782 99.8138 114.327L97.4869 116.325L100.483 119.815L102.81 117.818Z" fill="#F4ECE1"/>
<path d="M118.84 115.677C116.937 115.683 115.18 114.814 113.562 113.06C113.219 112.681 112.709 112.109 112.043 111.333C111.377 110.557 110.869 109.965 110.548 109.548C109.078 107.704 108.496 105.827 108.784 103.896C109.072 101.965 110.143 100.204 112.006 98.6045C113.87 97.0048 115.783 96.2043 117.736 96.2122C119.689 96.2201 121.455 97.0796 123.044 98.8216C123.752 99.5803 124.262 100.153 124.604 100.551C124.946 100.95 125.416 101.519 126.059 102.334C127.547 104.199 128.149 106.077 127.846 107.947C127.551 109.827 126.452 111.576 124.545 113.212C122.638 114.849 120.743 115.671 118.84 115.677ZM123.232 108.108C123.295 107.288 122.94 106.395 122.176 105.461C121.533 104.646 121.072 104.088 120.795 103.765C120.49 103.409 120.007 102.869 119.328 102.143C118.509 101.255 117.681 100.769 116.86 100.706C116.039 100.644 115.252 100.926 114.52 101.555C113.787 102.183 113.4 102.909 113.337 103.73C113.275 104.551 113.629 105.443 114.372 106.396C114.685 106.782 115.155 107.352 115.775 108.074C116.394 108.795 116.866 109.345 117.22 109.714C118.049 110.593 118.878 111.079 119.688 111.151C120.498 111.222 121.285 110.94 122.028 110.302C122.771 109.664 123.17 108.929 123.232 108.108Z" fill="#F4ECE1"/>
<path d="M134.043 104.442C133.863 104.428 133.707 104.356 133.587 104.216L122.269 91.0305C122.139 90.8797 122.092 90.7149 122.105 90.5348C122.119 90.3546 122.2 90.2098 122.341 90.0896L124.527 88.2125C124.851 87.9351 125.217 87.8825 125.617 88.0439L134.667 91.3714L132.749 81.9226C132.641 81.4915 132.758 81.148 133.081 80.8706L135.246 79.012C135.397 78.8826 135.552 78.8239 135.743 78.8284C135.934 78.8329 136.079 78.9144 136.209 79.0652L147.527 92.2509C147.656 92.4018 147.704 92.5665 147.69 92.7467C147.676 92.9268 147.584 93.0809 147.433 93.2103L145.02 95.2816C144.869 95.4111 144.714 95.4697 144.523 95.4652C144.343 95.4515 144.187 95.3792 144.058 95.2284L137.53 87.6229L138.891 93.8076C138.986 94.268 138.879 94.6222 138.577 94.8811L137.521 95.7873C137.349 95.9352 137.172 96.0123 137 96.0294C136.818 96.0357 136.628 96.0112 136.424 95.9251L130.495 93.661L137.023 101.266C137.143 101.407 137.193 101.551 137.188 101.742C137.175 101.922 137.102 102.078 136.952 102.207L134.517 104.297C134.377 104.417 134.212 104.465 134.032 104.451L134.043 104.442Z" fill="#F4ECE1"/>
<path d="M90.8598 176.72C90.6796 176.706 90.5241 176.634 90.4039 176.494L79.0859 163.308C78.9564 163.157 78.9086 162.993 78.9223 162.812C78.936 162.632 79.0176 162.487 79.1576 162.367L88.4867 154.36C88.6375 154.23 88.793 154.171 88.9732 154.185C89.1533 154.199 89.2981 154.28 89.4276 154.431L91.1845 156.478C91.3047 156.618 91.3633 156.774 91.3496 156.954C91.3358 157.134 91.2636 157.289 91.1128 157.419L84.8431 162.801L87.4044 165.785L93.2647 160.754C93.4156 160.625 93.5803 160.577 93.7605 160.591C93.9406 160.604 94.0947 160.697 94.2241 160.848L95.9625 162.873C96.0827 163.013 96.1414 163.168 96.1276 163.349C96.1139 163.529 96.0416 163.684 95.8908 163.814L90.0305 168.844L93.9603 173.422C94.0898 173.573 94.1484 173.729 94.1347 173.909C94.121 174.089 94.0394 174.234 93.8886 174.363L91.3355 176.555C91.1955 176.675 91.0307 176.723 90.8506 176.709L90.8598 176.72Z" fill="#F4ECE1"/>
<path d="M102.373 166.875C102.213 166.863 102.086 166.803 101.994 166.695C101.92 166.609 101.874 166.555 101.858 166.494L95.4404 149.382C95.3447 149.184 95.3107 148.97 95.3583 148.742C95.4059 148.514 95.532 148.312 95.7475 148.127L98.753 145.547C98.9685 145.362 99.1871 145.268 99.4196 145.256C99.6521 145.243 99.8585 145.309 100.029 145.443L115.959 154.39L116.16 154.536C116.252 154.643 116.292 154.777 116.28 154.938C116.268 155.098 116.197 155.233 116.079 155.335L113.579 157.48C113.256 157.758 112.921 157.803 112.563 157.604L109.991 156.22L104.572 160.871L105.572 163.605C105.704 163.978 105.608 164.323 105.274 164.609L102.775 166.755C102.667 166.847 102.533 166.887 102.373 166.875ZM106.675 154.014L100.195 150.278L102.905 157.251L106.675 154.014Z" fill="#F4ECE1"/>
<path d="M119.149 152.438C118.969 152.424 118.813 152.352 118.693 152.212L107.375 139.026C107.245 138.876 107.197 138.711 107.211 138.531C107.225 138.35 107.306 138.206 107.447 138.085L112.962 133.351C114.729 131.835 116.461 131.04 118.145 130.998C119.83 130.955 121.296 131.661 122.563 133.137C123.377 134.085 123.844 135.087 123.966 136.123C124.089 137.159 123.919 138.203 123.428 139.223L130.489 141.825C130.606 141.874 130.683 141.92 130.747 141.996C130.84 142.104 130.88 142.238 130.868 142.398C130.856 142.558 130.796 142.684 130.688 142.777L127.995 145.088C127.607 145.421 127.17 145.478 126.694 145.251L120.549 142.779L118.481 144.554L122.346 149.057C122.476 149.208 122.524 149.373 122.51 149.553C122.496 149.733 122.404 149.887 122.253 150.017L119.635 152.264C119.495 152.384 119.33 152.432 119.15 152.418L119.149 152.438ZM118.338 139.701C118.962 139.165 119.307 138.607 119.371 138.028C119.435 137.449 119.236 136.89 118.765 136.341C118.293 135.791 117.771 135.51 117.181 135.455C116.591 135.4 115.977 135.665 115.342 136.211L113.015 138.208L116.011 141.698L118.338 139.701Z" fill="#F4ECE1"/>
<path d="M134.177 139.539C133.996 139.525 133.841 139.453 133.721 139.313L122.403 126.127C122.273 125.976 122.225 125.812 122.239 125.631C122.253 125.451 122.334 125.306 122.474 125.186L124.661 123.309C124.984 123.032 125.351 122.979 125.751 123.141L134.8 126.468L132.883 117.019C132.775 116.588 132.891 116.245 133.215 115.967L135.38 114.109C135.531 113.979 135.686 113.921 135.877 113.925C136.068 113.93 136.213 114.011 136.342 114.162L147.66 127.348C147.79 127.498 147.838 127.663 147.824 127.843C147.81 128.024 147.718 128.178 147.567 128.307L145.154 130.378C145.003 130.508 144.848 130.566 144.657 130.562C144.477 130.548 144.321 130.476 144.192 130.325L137.663 122.72L139.024 128.904C139.12 129.365 139.013 129.719 138.711 129.978L137.655 130.884C137.483 131.032 137.306 131.109 137.133 131.126C136.952 131.132 136.762 131.108 136.557 131.022L130.629 128.758L137.157 136.363C137.277 136.503 137.327 136.648 137.322 136.839C137.308 137.019 137.236 137.175 137.085 137.304L134.651 139.394C134.511 139.514 134.346 139.562 134.166 139.548L134.177 139.539Z" fill="#F4ECE1"/>
<path d="M159.966 117.402C159.786 117.388 159.63 117.316 159.51 117.176L150.495 106.673L146.886 109.77C146.746 109.891 146.592 109.929 146.401 109.925C146.221 109.911 146.065 109.839 145.945 109.699L144.086 107.533C143.957 107.383 143.909 107.218 143.923 107.038C143.937 106.858 144.018 106.713 144.158 106.593L155.071 97.2256C155.222 97.0961 155.377 97.0375 155.557 97.0512C155.737 97.065 155.882 97.1465 156.012 97.2973L157.87 99.4626C158 99.6134 158.058 99.7689 158.045 99.9491C158.031 100.129 157.949 100.274 157.799 100.404L154.19 103.501L163.205 114.004C163.325 114.145 163.375 114.289 163.37 114.48C163.357 114.66 163.284 114.816 163.134 114.945L160.451 117.248C160.311 117.368 160.146 117.416 159.966 117.402Z" fill="#F4ECE1"/>
<path d="M170.661 106.408C168.757 106.414 167.001 105.545 165.383 103.791C165.04 103.412 164.529 102.84 163.864 102.064C163.198 101.288 162.689 100.696 162.369 100.279C160.898 98.435 160.317 96.5583 160.605 94.6271C160.893 92.696 161.963 90.9351 163.827 89.3355C165.691 87.7358 167.604 86.9353 169.557 86.9431C171.509 86.951 173.276 87.8106 174.865 89.5526C175.572 90.3113 176.082 90.8837 176.425 91.2823C176.767 91.6809 177.237 92.2503 177.879 93.0645C179.368 94.9297 179.97 96.808 179.667 98.6776C179.372 100.558 178.272 102.306 176.366 103.943C174.459 105.58 172.564 106.402 170.661 106.408ZM175.053 98.8394C175.116 98.0186 174.761 97.1257 173.997 96.1916C173.354 95.3774 172.893 94.8188 172.616 94.4956C172.311 94.1401 171.828 93.5999 171.149 92.8736C170.33 91.9857 169.501 91.4996 168.681 91.4371C167.86 91.3745 167.073 91.6569 166.341 92.2856C165.608 92.9144 165.221 93.64 165.158 94.4607C165.095 95.2815 165.45 96.1744 166.193 97.1271C166.506 97.5134 166.976 98.0828 167.596 98.8046C168.215 99.5263 168.687 100.076 169.041 100.445C169.87 101.324 170.699 101.81 171.509 101.882C172.319 101.953 173.106 101.671 173.849 101.033C174.592 100.395 174.991 99.6602 175.053 98.8394Z" fill="#F4ECE1"/>
<path d="M123.762 183.708C123.582 183.694 123.427 183.622 123.306 183.482L114.291 172.978L110.682 176.076C110.542 176.196 110.388 176.235 110.197 176.23C110.017 176.217 109.861 176.144 109.741 176.004L107.883 173.839C107.753 173.688 107.705 173.524 107.719 173.343C107.733 173.163 107.814 173.018 107.954 172.898L118.867 163.531C119.018 163.402 119.173 163.343 119.353 163.357C119.534 163.371 119.678 163.452 119.808 163.603L121.666 165.768C121.796 165.919 121.855 166.075 121.841 166.255C121.827 166.435 121.746 166.58 121.595 166.709L117.986 169.807L127.001 180.31C127.122 180.45 127.171 180.595 127.167 180.786C127.153 180.966 127.081 181.122 126.93 181.251L124.247 183.553C124.107 183.674 123.943 183.722 123.762 183.708Z" fill="#F4ECE1"/>
<path d="M131.753 176.887C131.592 176.875 131.466 176.815 131.374 176.707C131.3 176.621 131.253 176.567 131.238 176.505L124.82 159.394C124.725 159.196 124.691 158.982 124.738 158.754C124.786 158.526 124.912 158.324 125.127 158.139L128.133 155.559C128.348 155.374 128.567 155.28 128.8 155.268C129.032 155.255 129.238 155.321 129.409 155.455L145.339 164.401L145.54 164.547C145.632 164.655 145.672 164.789 145.66 164.949C145.648 165.109 145.577 165.245 145.459 165.347L142.959 167.492C142.636 167.769 142.301 167.814 141.943 167.616L139.371 166.232L133.952 170.883L134.952 173.617C135.084 173.99 134.988 174.335 134.654 174.621L132.154 176.766C132.047 176.859 131.913 176.899 131.753 176.887ZM136.046 164.015L129.565 160.279L132.276 167.251L136.046 164.015Z" fill="#F4ECE1"/>
<path d="M148.529 162.45C148.348 162.436 148.193 162.364 148.073 162.224L136.755 149.038C136.625 148.887 136.577 148.723 136.591 148.542C136.605 148.362 136.686 148.217 136.826 148.097L143.01 142.79C144.712 141.329 146.279 140.582 147.71 140.57C149.14 140.559 150.411 141.189 151.511 142.471C152.094 143.15 152.412 143.869 152.464 144.628C152.517 145.387 152.425 146.064 152.179 146.65C152.951 146.437 153.776 146.439 154.643 146.687C155.51 146.934 156.25 147.403 156.851 148.103C158.016 149.461 158.471 150.885 158.234 152.417C157.996 153.949 157.039 155.407 155.391 156.821L149.024 162.286C148.884 162.406 148.72 162.454 148.539 162.441L148.529 162.45ZM147.437 148.775C147.975 148.313 148.275 147.812 148.315 147.291C148.355 146.771 148.191 146.275 147.793 145.812C147.396 145.349 146.96 145.124 146.438 145.105C145.916 145.085 145.386 145.296 144.848 145.759L142.208 148.024L144.788 151.03L147.427 148.764L147.437 148.775ZM152.705 154.543C153.255 154.071 153.558 153.53 153.582 152.948C153.617 152.357 153.426 151.829 153.037 151.377C152.621 150.892 152.119 150.612 151.539 150.568C150.958 150.523 150.388 150.732 149.839 151.203L147.017 153.626L149.892 156.976L152.715 154.554L152.705 154.543Z" fill="#F4ECE1"/>
<path d="M163.815 149.329C163.635 149.315 163.479 149.243 163.359 149.103L152.041 135.917C151.912 135.766 151.864 135.601 151.878 135.421C151.891 135.241 151.973 135.096 152.113 134.976L154.795 132.674C154.946 132.544 155.101 132.486 155.282 132.499C155.462 132.513 155.607 132.595 155.736 132.745L164.853 143.367L170.994 138.097C171.145 137.967 171.309 137.919 171.489 137.933C171.67 137.947 171.824 138.039 171.953 138.19L173.692 140.215C173.812 140.355 173.861 140.5 173.857 140.691C173.843 140.871 173.771 141.026 173.62 141.156L164.291 149.164C164.151 149.284 163.986 149.332 163.806 149.318L163.815 149.329Z" fill="#F4ECE1"/>
<path d="M176.936 138.066C176.756 138.053 176.6 137.98 176.48 137.84L165.162 124.655C165.033 124.504 164.985 124.339 164.999 124.159C165.012 123.979 165.094 123.834 165.234 123.714L174.703 115.586C174.854 115.456 175.009 115.398 175.189 115.411C175.37 115.425 175.514 115.507 175.644 115.657L177.281 117.564C177.401 117.704 177.459 117.86 177.446 118.04C177.432 118.22 177.36 118.376 177.209 118.505L170.735 124.062L173.083 126.799L179.105 121.63C179.256 121.5 179.421 121.452 179.601 121.466C179.781 121.48 179.935 121.572 180.064 121.723L181.581 123.49C181.701 123.63 181.76 123.785 181.746 123.965C181.732 124.146 181.66 124.301 181.509 124.431L175.487 129.6L177.91 132.422L184.546 126.726C184.697 126.597 184.852 126.538 185.032 126.552C185.213 126.565 185.357 126.647 185.487 126.798L187.123 128.704C187.244 128.844 187.293 128.989 187.289 129.18C187.275 129.36 187.203 129.516 187.052 129.645L177.421 137.912C177.281 138.032 177.116 138.08 176.936 138.066Z" fill="#F4ECE1"/>
</g>
<defs>
<clipPath id="clip0_1_620">
<rect width="184.417" height="184.417" fill="white" transform="translate(0.452065 120.567) rotate(-40.6412)"/>
</clipPath>
</defs>
</svg>
